# xmcd
#
# Track frame offsets:
#	150
#	19798
#	37951
#	57879
#	75241
#	95138
#	111048
#	128439
#	150717
#	165640
#	192049
#	217516
#	240197
#
# Disc length: 3513 seconds
#
# Revision: 0
# Processed by: cddbd v1.4PL0 Copyright (c) Steve Scherf et al.
# Submitted via: EasyCDDAExtractor 4.6.9.1
#
DISCID=8a0db70d
DTITLE=Van Morrison - Down the Road
DYEAR=2002
DGENRE=Blues
TTITLE0=Down the Road
TTITLE1=Meet Me In the Indian Summer
TTITLE2=Steal My Heart Away
TTITLE3=Hey Mr DJ
TTITLE4=Talk Is Cheap
TTITLE5=Choppin' Wood
TTITLE6=What Makes the Irish Heart Beat
TTITLE7=All Work and No Play
TTITLE8=Whatever Happened to PJ Proby?
TTITLE9=The Beauty of the Days Gone By
TTITLE10=Georgia On My Mind
TTITLE11=Only a Dream
TTITLE12=Man Has To Struggle
EXTD=
EXTT0=
EXTT1=
EXTT2=
EXTT3=
EXTT4=
EXTT5=
EXTT6=
EXTT7=
EXTT8=
EXTT9=
EXTT10=
EXTT11=
EXTT12=
PLAYORDER=
